<?xml version="1.0" standalone="no"?>
<!DOCTYPE svg PUBLIC "-//W3C//DTD SVG 20010904//EN"
 "http://www.w3.org/TR/2001/REC-SVG-20010904/DTD/svg10.dtd">
<svg version="1.0" xmlns="http://www.w3.org/2000/svg"
 width="256.000000pt" height="256.000000pt" viewBox="0 0 256.000000 256.000000"
 preserveAspectRatio="xMidYMid meet">
<metadata>
Created by potrace 1.14, written by Peter Selinger 2001-2017
</metadata>
<g transform="translate(0.000000,256.000000) scale(0.100000,-0.100000)"
fill="#000000" stroke="none">
<path d="M520 2540 c-234 -58 -404 -218 -491 -460 l-24 -65 -2 -705 c-2 -771
-1 -778 57 -906 83 -184 227 -311 428 -377 66 -22 72 -22 782 -22 393 0 726 3
740 6 122 31 197 65 276 125 135 102 233 259 263 424 6 33 10 323 10 725 0
578 -2 680 -15 740 -49 215 -189 385 -391 477 -124 56 -145 57 -883 57 -624
-1 -681 -2 -750 -19z"/>
</g>
</svg>
